<svg width="90" height="90" viewBox="0 0 90 90" fill="none" xmlns="http://www.w3.org/2000/svg">
<rect width="67" height="66" rx="12" transform="matrix(-0.886509 0.462711 0.462711 0.886509 59.3987 0.00439453)" fill="#FAFAFA"/>
<g clip-path="url(#clip0_95_106)">
<path d="M44.4798 48.4921L56.502 52.5658C62.2076 47.4386 62.6764 38.6568 57.5492 32.9512C55.2402 30.3818 52.0567 28.765 48.6198 28.4165C48.6887 28.5407 44.4798 48.4921 44.4798 48.4921Z" fill="#0364B8"/>
<path d="M49.9219 34.4813L49.9204 34.4816C50.0718 32.4253 49.6452 30.3676 48.6887 28.5409C48.6667 28.4986 48.6423 28.4586 48.6198 28.4167C45.7148 23.0146 38.9804 20.9902 33.5783 23.8953C31.6187 24.949 30.0208 26.5671 28.9917 28.5398L36.8767 39.9276L49.2844 45.3379L49.9219 34.4813Z" fill="#0078D4"/>
<path d="M56.5023 52.5658C56.4209 52.3808 56.3354 52.1969 56.2405 52.0152C55.6722 50.9235 54.8858 49.9602 53.9302 49.1847L53.9309 49.184L49.2846 45.3377L45.4088 54.274L48.117 65.2197C53.1025 65.285 57.1968 61.2963 57.262 56.3109C57.2789 55.0227 57.0198 53.7456 56.5023 52.5658Z" fill="#1490DF"/>
<path d="M28.9917 28.5395C27.3068 31.7597 27.3058 35.6009 28.989 38.822L40.2342 60.3686C41.7694 63.3124 44.7971 65.1756 48.1168 65.2197L49.2844 45.3377L28.9917 28.5395Z" fill="#28A8EA"/>
</g>
<defs>
<clipPath id="clip0_95_106">
<rect width="50" height="50" fill="white" transform="translate(57.1643 8.45142) rotate(62.44)"/>
</clipPath>
</defs>
</svg>
