<svg width="90" height="90" viewBox="0 0 90 90" fill="none" xmlns="http://www.w3.org/2000/svg">
<rect x="30.5413" y="0.00436401" width="67" height="66" rx="12" transform="rotate(27.5622 30.5413 0.00436401)" fill="#FAFAFA"/>
<path d="M23.0893 40.4742C22.7628 41.0825 22.6007 41.7785 22.6375 42.4957L23.1306 52.0914C23.2028 53.4969 24.0282 54.7704 25.2956 55.4319L48.3008 67.4383C49.5682 68.0997 51.085 68.0486 52.2793 67.3041L60.4331 62.2211C61.0425 61.8412 61.5207 61.3103 61.8331 60.6945L23.0893 40.4742Z" fill="#4285F4"/>
<path d="M50.3359 67.8977L48.108 24.8858C48.8128 24.8523 49.5293 25.004 50.1801 25.3436L58.7533 29.818C60.0202 30.4792 60.8455 31.752 60.9183 33.1569L62.2439 58.7498C62.3166 60.1541 61.6264 61.4772 60.4331 62.2211L52.2793 67.3041C51.6875 67.673 51.0165 67.8717 50.3359 67.8977Z" fill="#FBBC04"/>
<path d="M60.3139 31.256C59.9383 30.6587 59.4041 30.1577 58.7534 29.818L50.1801 25.3437C48.9132 24.6825 47.3971 24.7333 46.203 25.477L24.4498 39.0251C23.2561 39.7685 22.5654 41.0913 22.6376 42.4957L23.1306 52.0914C23.1664 52.7879 23.3871 53.452 23.7549 54.0252L60.3139 31.256Z" fill="#34A853"/>
<path d="M61.8331 60.6946C61.5207 61.3103 61.0425 61.8412 60.4331 62.2211L52.2793 67.3041C51.6875 67.673 51.0165 67.8717 50.3359 67.8977L49.633 54.3273L61.8331 60.6946Z" fill="#EA4335"/>
<path d="M60.3139 31.256C59.9383 30.6586 59.4041 30.1576 58.7533 29.818L50.1801 25.3436C49.5293 25.004 48.8128 24.8523 48.108 24.8858L48.8091 38.4213L60.3139 31.256Z" fill="#188038"/>
<path d="M23.0893 40.4742C22.7628 41.0825 22.6007 41.7785 22.6375 42.4957L23.1306 52.0914C23.1664 52.7879 23.3871 53.4519 23.7549 54.0252L35.2894 46.8414L23.0893 40.4742Z" fill="#1967D2"/>
</svg>
