<svg width="281" height="41" viewBox="0 0 281 41" fill="none" xmlns="http://www.w3.org/2000/svg">
<mask id="path-1-inside-1_95_57" fill="white">
<path d="M0.350006 20.03C0.350006 8.98433 9.30431 0.0300293 20.35 0.0300293H260.35C271.396 0.0300293 280.35 8.98433 280.35 20.03C280.35 31.0757 271.396 40.03 260.35 40.03H20.35C9.30432 40.03 0.350006 31.0757 0.350006 20.03Z"/>
</mask>
<path d="M0.350006 20.03C0.350006 8.98433 9.30431 0.0300293 20.35 0.0300293H260.35C271.396 0.0300293 280.35 8.98433 280.35 20.03C280.35 31.0757 271.396 40.03 260.35 40.03H20.35C9.30432 40.03 0.350006 31.0757 0.350006 20.03Z" fill="white"/>
<path d="M20.35 0.0300293V1.02558H260.35V0.0300293V-0.965521H20.35V0.0300293ZM260.35 40.03V39.0345H20.35V40.03V41.0256H260.35V40.03ZM20.35 40.03V39.0345C9.85415 39.0345 1.34556 30.5259 1.34556 20.03H0.350006H-0.645544C-0.645544 31.6256 8.75449 41.0256 20.35 41.0256V40.03ZM280.35 20.03H279.354C279.354 30.5259 270.846 39.0345 260.35 39.0345V40.03V41.0256C271.946 41.0256 281.346 31.6256 281.346 20.03H280.35ZM260.35 0.0300293V1.02558C270.846 1.02558 279.354 9.53416 279.354 20.03H280.35H281.346C281.346 8.43451 271.946 -0.965521 260.35 -0.965521V0.0300293ZM20.35 0.0300293V-0.965521C8.75449 -0.965521 -0.645544 8.43451 -0.645544 20.03H0.350006H1.34556C1.34556 9.53416 9.85414 1.02558 20.35 1.02558V0.0300293Z" fill="#E9ECEF" mask="url(#path-1-inside-1_95_57)"/>
<g opacity="0.6" clip-path="url(#clip0_95_57)">
<path d="M18.822 25.53V14.17H25.958V15.514H20.198V19.178H25.766V20.49H20.198V24.186H26.086V25.53H18.822ZM28.3706 25.53V17.05H29.6026L29.6506 19.194L29.4586 19.13C29.5546 18.6607 29.72 18.2607 29.9546 17.93C30.2 17.5887 30.4986 17.3274 30.8506 17.146C31.2026 16.954 31.592 16.858 32.0186 16.858C32.7546 16.858 33.352 17.0607 33.8106 17.466C34.28 17.8714 34.5733 18.4367 34.6906 19.162L34.4346 19.146C34.52 18.6554 34.6746 18.2447 34.8986 17.914C35.1333 17.5727 35.432 17.3114 35.7946 17.13C36.1573 16.9487 36.5733 16.858 37.0426 16.858C37.6506 16.858 38.1626 16.986 38.5786 17.242C38.9946 17.4874 39.3093 17.85 39.5226 18.33C39.736 18.81 39.8426 19.3914 39.8426 20.074V25.53H38.4986V20.362C38.4986 19.594 38.3493 19.018 38.0506 18.634C37.752 18.2394 37.3093 18.042 36.7226 18.042C36.328 18.042 35.9813 18.138 35.6826 18.33C35.3946 18.522 35.1706 18.7994 35.0106 19.162C34.8506 19.514 34.7706 19.946 34.7706 20.458V25.53H33.4266V20.458C33.4266 19.7007 33.2933 19.1087 33.0266 18.682C32.76 18.2554 32.312 18.042 31.6826 18.042C31.288 18.042 30.9413 18.138 30.6426 18.33C30.3546 18.522 30.1253 18.7994 29.9546 19.162C29.7946 19.5247 29.7146 19.9567 29.7146 20.458V25.53H28.3706ZM44.6336 25.722C43.759 25.722 43.0603 25.5194 42.5376 25.114C42.0256 24.7087 41.7696 24.1434 41.7696 23.418C41.7696 22.6927 41.983 22.122 42.4096 21.706C42.8363 21.29 43.5136 20.9967 44.4416 20.826L47.4496 20.266C47.4496 19.5514 47.279 19.018 46.9376 18.666C46.607 18.314 46.1056 18.138 45.4336 18.138C44.847 18.138 44.383 18.2714 44.0416 18.538C43.7003 18.794 43.4656 19.1674 43.3376 19.658L41.9136 19.546C42.0736 18.746 42.4576 18.1007 43.0656 17.61C43.6843 17.1087 44.4736 16.858 45.4336 16.858C46.5216 16.858 47.3536 17.1674 47.9296 17.786C48.5056 18.394 48.7936 19.2367 48.7936 20.314V23.818C48.7936 24.01 48.8256 24.1487 48.8896 24.234C48.9643 24.3087 49.0816 24.346 49.2416 24.346H49.5776V25.53C49.535 25.5407 49.4656 25.546 49.3696 25.546C49.2736 25.5567 49.1723 25.562 49.0656 25.562C48.6816 25.562 48.367 25.5034 48.1216 25.386C47.887 25.258 47.7163 25.066 47.6096 24.81C47.503 24.5434 47.4496 24.1967 47.4496 23.77L47.6096 23.802C47.535 24.1647 47.3536 24.4954 47.0656 24.794C46.7776 25.082 46.4203 25.3114 45.9936 25.482C45.567 25.642 45.1136 25.722 44.6336 25.722ZM44.7616 24.538C45.327 24.538 45.807 24.4314 46.2016 24.218C46.607 23.994 46.9163 23.6954 47.1296 23.322C47.343 22.938 47.4496 22.5114 47.4496 22.042V21.434L44.6976 21.946C44.1216 22.0527 43.7216 22.218 43.4976 22.442C43.2843 22.6554 43.1776 22.938 43.1776 23.29C43.1776 23.6847 43.3163 23.994 43.5936 24.218C43.8816 24.4314 44.271 24.538 44.7616 24.538ZM51.1331 25.53V17.05H52.4771V25.53H51.1331ZM51.1011 15.722V14.154H52.5091V15.722H51.1011ZM56.6471 25.53C56.1565 25.53 55.7565 25.402 55.4471 25.146C55.1378 24.89 54.9831 24.4847 54.9831 23.93V14.17H56.3271V23.818C56.3271 23.9887 56.3698 24.122 56.4551 24.218C56.5511 24.3034 56.6845 24.346 56.8551 24.346H57.5911V25.53H56.6471ZM65.7368 25.722C64.8621 25.722 64.1634 25.5194 63.6408 25.114C63.1288 24.7087 62.8728 24.1434 62.8728 23.418C62.8728 22.6927 63.0861 22.122 63.5128 21.706C63.9394 21.29 64.6168 20.9967 65.5448 20.826L68.5528 20.266C68.5528 19.5514 68.3821 19.018 68.0408 18.666C67.7101 18.314 67.2088 18.138 66.5368 18.138C65.9501 18.138 65.4861 18.2714 65.1448 18.538C64.8034 18.794 64.5688 19.1674 64.4408 19.658L63.0168 19.546C63.1768 18.746 63.5608 18.1007 64.1688 17.61C64.7874 17.1087 65.5768 16.858 66.5368 16.858C67.6248 16.858 68.4568 17.1674 69.0328 17.786C69.6088 18.394 69.8968 19.2367 69.8968 20.314V23.818C69.8968 24.01 69.9288 24.1487 69.9928 24.234C70.0674 24.3087 70.1848 24.346 70.3448 24.346H70.6808V25.53C70.6381 25.5407 70.5688 25.546 70.4728 25.546C70.3768 25.5567 70.2754 25.562 70.1688 25.562C69.7848 25.562 69.4701 25.5034 69.2248 25.386C68.9901 25.258 68.8194 25.066 68.7128 24.81C68.6061 24.5434 68.5528 24.1967 68.5528 23.77L68.7128 23.802C68.6381 24.1647 68.4568 24.4954 68.1688 24.794C67.8808 25.082 67.5234 25.3114 67.0968 25.482C66.6701 25.642 66.2168 25.722 65.7368 25.722ZM65.8648 24.538C66.4301 24.538 66.9101 24.4314 67.3048 24.218C67.7101 23.994 68.0194 23.6954 68.2328 23.322C68.4461 22.938 68.5528 22.5114 68.5528 22.042V21.434L65.8008 21.946C65.2248 22.0527 64.8248 22.218 64.6008 22.442C64.3874 22.6554 64.2808 22.938 64.2808 23.29C64.2808 23.6847 64.4194 23.994 64.6968 24.218C64.9848 24.4314 65.3741 24.538 65.8648 24.538ZM75.2755 25.722C74.5395 25.722 73.8995 25.5407 73.3555 25.178C72.8222 24.8154 72.4115 24.3034 72.1235 23.642C71.8355 22.9807 71.6915 22.1967 71.6915 21.29C71.6915 20.3834 71.8355 19.5994 72.1235 18.938C72.4115 18.2767 72.8222 17.7647 73.3555 17.402C73.8995 17.0394 74.5395 16.858 75.2755 16.858C75.8408 16.858 76.3582 16.9807 76.8275 17.226C77.2968 17.4607 77.6488 17.7967 77.8835 18.234V14.17H79.2275V25.53H78.0115L77.9635 24.25C77.7288 24.7087 77.3715 25.0714 76.8915 25.338C76.4115 25.594 75.8728 25.722 75.2755 25.722ZM75.5475 24.442C76.0488 24.442 76.4702 24.314 76.8115 24.058C77.1635 23.802 77.4302 23.4394 77.6115 22.97C77.7928 22.49 77.8835 21.93 77.8835 21.29C77.8835 20.6287 77.7928 20.0634 77.6115 19.594C77.4302 19.1247 77.1635 18.7674 76.8115 18.522C76.4702 18.266 76.0488 18.138 75.5475 18.138C74.8008 18.138 74.2035 18.4207 73.7555 18.986C73.3182 19.5407 73.0995 20.3087 73.0995 21.29C73.0995 22.2607 73.3182 23.0287 73.7555 23.594C74.2035 24.1594 74.8008 24.442 75.5475 24.442ZM84.7349 25.722C83.9989 25.722 83.3589 25.5407 82.8149 25.178C82.2815 24.8154 81.8709 24.3034 81.5829 23.642C81.2949 22.9807 81.1509 22.1967 81.1509 21.29C81.1509 20.3834 81.2949 19.5994 81.5829 18.938C81.8709 18.2767 82.2815 17.7647 82.8149 17.402C83.3589 17.0394 83.9989 16.858 84.7349 16.858C85.3002 16.858 85.8175 16.9807 86.2869 17.226C86.7562 17.4607 87.1082 17.7967 87.3429 18.234V14.17H88.6869V25.53H87.4709L87.4229 24.25C87.1882 24.7087 86.8309 25.0714 86.3509 25.338C85.8709 25.594 85.3322 25.722 84.7349 25.722ZM85.0069 24.442C85.5082 24.442 85.9295 24.314 86.2709 24.058C86.6229 23.802 86.8895 23.4394 87.0709 22.97C87.2522 22.49 87.3429 21.93 87.3429 21.29C87.3429 20.6287 87.2522 20.0634 87.0709 19.594C86.8895 19.1247 86.6229 18.7674 86.2709 18.522C85.9295 18.266 85.5082 18.138 85.0069 18.138C84.2602 18.138 83.6629 18.4207 83.2149 18.986C82.7775 19.5407 82.5589 20.3087 82.5589 21.29C82.5589 22.2607 82.7775 23.0287 83.2149 23.594C83.6629 24.1594 84.2602 24.442 85.0069 24.442ZM91.4988 25.53V17.05H92.6828L92.7468 19.194L92.6188 19.146C92.7254 18.4207 92.9548 17.8927 93.3068 17.562C93.6694 17.2207 94.1494 17.05 94.7468 17.05H95.5788V18.33H94.7628C94.3361 18.33 93.9788 18.41 93.6908 18.57C93.4134 18.7194 93.2001 18.9487 93.0508 19.258C92.9121 19.5567 92.8428 19.9407 92.8428 20.41V25.53H91.4988ZM100.333 25.722C99.5326 25.722 98.8393 25.5407 98.2526 25.178C97.6766 24.8154 97.2286 24.3034 96.9086 23.642C96.5993 22.97 96.4446 22.186 96.4446 21.29C96.4446 20.394 96.5993 19.6154 96.9086 18.954C97.2286 18.2927 97.6713 17.7807 98.2366 17.418C98.8126 17.0447 99.49 16.858 100.269 16.858C101.005 16.858 101.655 17.034 102.221 17.386C102.786 17.7274 103.223 18.2287 103.533 18.89C103.853 19.5514 104.013 20.3567 104.013 21.306V21.706H97.8526C97.906 22.6127 98.146 23.2954 98.5726 23.754C99.01 24.2127 99.5966 24.442 100.333 24.442C100.887 24.442 101.341 24.314 101.693 24.058C102.055 23.7914 102.306 23.4447 102.445 23.018L103.885 23.13C103.661 23.8874 103.234 24.5114 102.605 25.002C101.986 25.482 101.229 25.722 100.333 25.722ZM97.8526 20.522H102.541C102.477 19.7007 102.237 19.098 101.821 18.714C101.415 18.33 100.898 18.138 100.269 18.138C99.618 18.138 99.0793 18.3407 98.6526 18.746C98.2366 19.1407 97.97 19.7327 97.8526 20.522ZM109.021 25.722C108.264 25.722 107.618 25.5994 107.085 25.354C106.562 25.1087 106.152 24.7727 105.853 24.346C105.565 23.9087 105.4 23.4127 105.357 22.858L106.765 22.762C106.85 23.274 107.069 23.6847 107.421 23.994C107.773 24.2927 108.306 24.442 109.021 24.442C109.597 24.442 110.056 24.3514 110.397 24.17C110.749 23.978 110.925 23.674 110.925 23.258C110.925 23.034 110.872 22.8474 110.765 22.698C110.658 22.5487 110.45 22.4207 110.141 22.314C109.832 22.1967 109.373 22.0847 108.765 21.978C107.954 21.8287 107.314 21.6474 106.845 21.434C106.386 21.21 106.056 20.938 105.853 20.618C105.661 20.2874 105.565 19.898 105.565 19.45C105.565 18.6927 105.842 18.074 106.397 17.594C106.952 17.1034 107.741 16.858 108.765 16.858C109.458 16.858 110.04 16.986 110.509 17.242C110.989 17.4874 111.362 17.818 111.629 18.234C111.906 18.6394 112.088 19.0874 112.173 19.578L110.765 19.674C110.701 19.3754 110.584 19.114 110.413 18.89C110.242 18.6554 110.018 18.474 109.741 18.346C109.464 18.2074 109.133 18.138 108.749 18.138C108.141 18.138 107.693 18.2554 107.405 18.49C107.117 18.7247 106.973 19.0234 106.973 19.386C106.973 19.6634 107.037 19.8927 107.165 20.074C107.304 20.2447 107.522 20.3887 107.821 20.506C108.12 20.6127 108.52 20.7087 109.021 20.794C109.885 20.9434 110.557 21.1247 111.037 21.338C111.517 21.5514 111.853 21.8127 112.045 22.122C112.237 22.4314 112.333 22.81 112.333 23.258C112.333 23.7807 112.184 24.2287 111.885 24.602C111.597 24.9647 111.202 25.242 110.701 25.434C110.21 25.626 109.65 25.722 109.021 25.722ZM117.356 25.722C116.598 25.722 115.953 25.5994 115.42 25.354C114.897 25.1087 114.486 24.7727 114.188 24.346C113.9 23.9087 113.734 23.4127 113.692 22.858L115.1 22.762C115.185 23.274 115.404 23.6847 115.756 23.994C116.108 24.2927 116.641 24.442 117.356 24.442C117.932 24.442 118.39 24.3514 118.732 24.17C119.084 23.978 119.26 23.674 119.26 23.258C119.26 23.034 119.206 22.8474 119.1 22.698C118.993 22.5487 118.785 22.4207 118.476 22.314C118.166 22.1967 117.708 22.0847 117.1 21.978C116.289 21.8287 115.649 21.6474 115.18 21.434C114.721 21.21 114.39 20.938 114.188 20.618C113.996 20.2874 113.9 19.898 113.9 19.45C113.9 18.6927 114.177 18.074 114.732 17.594C115.286 17.1034 116.076 16.858 117.1 16.858C117.793 16.858 118.374 16.986 118.844 17.242C119.324 17.4874 119.697 17.818 119.964 18.234C120.241 18.6394 120.422 19.0874 120.508 19.578L119.1 19.674C119.036 19.3754 118.918 19.114 118.748 18.89C118.577 18.6554 118.353 18.474 118.076 18.346C117.798 18.2074 117.468 18.138 117.084 18.138C116.476 18.138 116.028 18.2554 115.74 18.49C115.452 18.7247 115.308 19.0234 115.308 19.386C115.308 19.6634 115.372 19.8927 115.5 20.074C115.638 20.2447 115.857 20.3887 116.156 20.506C116.454 20.6127 116.854 20.7087 117.356 20.794C118.22 20.9434 118.892 21.1247 119.372 21.338C119.852 21.5514 120.188 21.8127 120.38 22.122C120.572 22.4314 120.668 22.81 120.668 23.258C120.668 23.7807 120.518 24.2287 120.22 24.602C119.932 24.9647 119.537 25.242 119.036 25.434C118.545 25.626 117.985 25.722 117.356 25.722Z" fill="#343A40"/>
</g>
<defs>
<clipPath id="clip0_95_57">
<rect width="246" height="21" fill="white" transform="translate(17.35 9.53003)"/>
</clipPath>
</defs>
</svg>
