<svg width="20" height="20" viewBox="0 0 20 20" fill="none" xmlns="http://www.w3.org/2000/svg">
<path d="M18.1722 8.36775H17.501V8.33317H10.001V11.6665H14.7106C14.0235 13.6069 12.1772 14.9998 10.001 14.9998C7.23975 14.9998 5.001 12.7611 5.001 9.99984C5.001 7.23859 7.23975 4.99984 10.001 4.99984C11.2756 4.99984 12.4352 5.48067 13.3181 6.26609L15.6752 3.909C14.1868 2.52192 12.196 1.6665 10.001 1.6665C5.39891 1.6665 1.66766 5.39775 1.66766 9.99984C1.66766 14.6019 5.39891 18.3332 10.001 18.3332C14.6031 18.3332 18.3343 14.6019 18.3343 9.99984C18.3343 9.44109 18.2768 8.89567 18.1722 8.36775Z" fill="#FFC107"/>
<path d="M2.62799 6.12109L5.36591 8.129C6.10674 6.29484 7.90091 4.99984 10.0005 4.99984C11.2751 4.99984 12.4347 5.48067 13.3176 6.26609L15.6747 3.909C14.1863 2.52192 12.1955 1.6665 10.0005 1.6665C6.79966 1.6665 4.02382 3.47359 2.62799 6.12109Z" fill="#FF3D00"/>
<path d="M10.0004 18.3331C12.1529 18.3331 14.1087 17.5094 15.5874 16.1698L13.0083 13.9873C12.1435 14.645 11.0868 15.0007 10.0004 14.9998C7.83285 14.9998 5.99244 13.6177 5.2991 11.689L2.5816 13.7827C3.96077 16.4815 6.7616 18.3331 10.0004 18.3331Z" fill="#4CAF50"/>
<path d="M18.171 8.36784H17.4998V8.33325H9.99976V11.6666H14.7093C14.3807 12.5901 13.7887 13.3971 13.0064 13.9878L13.0077 13.987L15.5868 16.1695C15.4043 16.3353 18.3331 14.1666 18.3331 9.99992C18.3331 9.44117 18.2756 8.89575 18.171 8.36784Z" fill="#1976D2"/>
</svg>
