<svg width="177" height="38" viewBox="0 0 177 38" fill="none" xmlns="http://www.w3.org/2000/svg">
<rect x="1.34814" y="1.03003" width="173.984" height="36" rx="18" fill="url(#paint0_radial_95_62)"/>
<rect x="0.942022" y="0.623907" width="174.796" height="36.8122" rx="18.4061" stroke="white" stroke-opacity="0.1" stroke-width="0.812245"/>
<path d="M30.0022 25.19C29.5969 25.19 29.2076 25.158 28.8342 25.094C28.4609 25.0407 28.1889 24.9714 28.0182 24.886V23.446C28.2529 23.542 28.5356 23.622 28.8662 23.686C29.1969 23.75 29.5329 23.782 29.8742 23.782C30.5782 23.782 31.1062 23.638 31.4582 23.35C31.8209 23.0514 32.0022 22.582 32.0022 21.942V13.51H33.6982V22.006C33.6982 23.0727 33.3836 23.8727 32.7542 24.406C32.1249 24.9287 31.2076 25.19 30.0022 25.19ZM39.4975 25.19C38.6655 25.19 37.9348 25.0087 37.3055 24.646C36.6761 24.2727 36.1855 23.766 35.8335 23.126C35.4815 22.4754 35.3055 21.7394 35.3055 20.918C35.3055 20.086 35.4815 19.3554 35.8335 18.726C36.1961 18.0967 36.6868 17.606 37.3055 17.254C37.9348 16.8914 38.6655 16.71 39.4975 16.71C40.3401 16.71 41.0761 16.8914 41.7055 17.254C42.3348 17.606 42.8201 18.0967 43.1615 18.726C43.5135 19.3554 43.6895 20.086 43.6895 20.918C43.6895 21.7394 43.5135 22.4754 43.1615 23.126C42.8201 23.766 42.3348 24.2727 41.7055 24.646C41.0761 25.0087 40.3401 25.19 39.4975 25.19ZM39.4975 23.83C39.9988 23.83 40.4308 23.7074 40.7935 23.462C41.1668 23.2167 41.4601 22.8754 41.6735 22.438C41.8868 22.0007 41.9935 21.4887 41.9935 20.902C41.9935 20.0274 41.7588 19.3394 41.2895 18.838C40.8308 18.326 40.2335 18.07 39.4975 18.07C38.7721 18.07 38.1748 18.326 37.7055 18.838C37.2468 19.35 37.0175 20.038 37.0175 20.902C37.0175 21.4887 37.1188 22.0007 37.3215 22.438C37.5348 22.8754 37.8281 23.2167 38.2015 23.462C38.5855 23.7074 39.0175 23.83 39.4975 23.83ZM45.383 25.03V16.87H47.047V25.03H45.383ZM45.303 15.27V13.398H47.143V15.27H45.303ZM49.383 25.03V16.87H50.967V18.79H51.047V25.03H49.383ZM55.175 25.03V19.782C55.175 19.2167 55.031 18.7954 54.743 18.518C54.4656 18.2407 54.0496 18.102 53.495 18.102C53.015 18.102 52.5883 18.2087 52.215 18.422C51.8523 18.6354 51.5643 18.9287 51.351 19.302C51.1483 19.6754 51.047 20.118 51.047 20.63L50.839 18.678C51.1056 18.07 51.5163 17.59 52.071 17.238C52.6256 16.886 53.271 16.71 54.007 16.71C54.8816 16.71 55.5696 16.9554 56.071 17.446C56.5723 17.9367 56.823 18.5874 56.823 19.398V25.03H55.175ZM63.9223 25.03L61.4263 16.87H63.1383L64.8343 23.43H64.5943L66.6583 16.87H68.0983L70.1623 23.43H69.9383L71.6183 16.87H73.2503L70.7543 25.03H69.2983L67.2343 18.582H67.4743L65.3783 25.03H63.9223ZM79.564 25.03C79.5106 24.8274 79.4733 24.6034 79.452 24.358C79.4413 24.1127 79.436 23.814 79.436 23.462H79.356V19.574C79.356 19.0514 79.2226 18.662 78.956 18.406C78.7 18.1394 78.2893 18.006 77.724 18.006C77.18 18.006 76.7426 18.1127 76.412 18.326C76.092 18.5394 75.9053 18.8434 75.852 19.238H74.268C74.3426 18.47 74.6893 17.8567 75.308 17.398C75.9266 16.9394 76.7533 16.71 77.788 16.71C78.8546 16.71 79.6546 16.9607 80.188 17.462C80.7213 17.9527 80.988 18.678 80.988 19.638V23.462C80.988 23.7074 81.004 23.958 81.036 24.214C81.068 24.47 81.116 24.742 81.18 25.03H79.564ZM76.748 25.19C75.916 25.19 75.2546 24.9874 74.764 24.582C74.2733 24.166 74.028 23.606 74.028 22.902C74.028 22.1767 74.284 21.606 74.796 21.19C75.3186 20.7634 76.0653 20.4754 77.036 20.326L79.724 19.894V21.062L77.292 21.446C76.748 21.5314 76.3373 21.6754 76.06 21.878C75.7933 22.0807 75.66 22.374 75.66 22.758C75.66 23.1314 75.7826 23.414 76.028 23.606C76.284 23.7874 76.652 23.878 77.132 23.878C77.772 23.878 78.3 23.7234 78.716 23.414C79.1426 23.1047 79.356 22.7154 79.356 22.246L79.564 23.43C79.372 23.9954 79.0306 24.4327 78.54 24.742C78.0493 25.0407 77.452 25.19 76.748 25.19ZM83.133 25.03V16.87H84.797V25.03H83.133ZM83.053 15.27V13.398H84.893V15.27H83.053ZM90.5425 25.19C89.5931 25.19 88.8945 24.9714 88.4465 24.534C88.0091 24.086 87.7905 23.43 87.7905 22.566V14.998L89.4385 14.374V22.582C89.4385 23.0087 89.5505 23.3234 89.7745 23.526C89.9985 23.7287 90.3611 23.83 90.8625 23.83C91.0545 23.83 91.2251 23.814 91.3745 23.782C91.5238 23.75 91.6518 23.7127 91.7585 23.67V25.014C91.6411 25.0674 91.4758 25.11 91.2625 25.142C91.0491 25.174 90.8091 25.19 90.5425 25.19ZM86.1585 18.198V16.87H91.7585V18.198H86.1585ZM92.1486 21.398V19.958H97.7966V21.398H92.1486ZM100.133 25.03V13.51H101.797V25.03H100.133ZM104.133 25.03V16.87H105.797V25.03H104.133ZM104.053 15.27V13.398H105.893V15.27H104.053ZM111.061 25.19C109.995 25.19 109.147 24.9554 108.517 24.486C107.888 24.0167 107.531 23.3554 107.445 22.502H108.981C109.056 22.9714 109.269 23.334 109.621 23.59C109.984 23.8354 110.475 23.958 111.093 23.958C111.637 23.958 112.053 23.862 112.341 23.67C112.629 23.478 112.773 23.206 112.773 22.854C112.773 22.598 112.688 22.3847 112.517 22.214C112.357 22.0327 112.037 21.8834 111.557 21.766L110.245 21.462C109.424 21.2594 108.811 20.9607 108.405 20.566C108.011 20.1607 107.813 19.6647 107.813 19.078C107.813 18.342 108.085 17.766 108.629 17.35C109.184 16.9234 109.941 16.71 110.901 16.71C111.851 16.71 112.613 16.9234 113.189 17.35C113.776 17.7767 114.107 18.374 114.181 19.142H112.645C112.581 18.758 112.395 18.4647 112.085 18.262C111.787 18.0487 111.376 17.942 110.853 17.942C110.363 17.942 109.984 18.0327 109.717 18.214C109.461 18.3847 109.333 18.6247 109.333 18.934C109.333 19.19 109.429 19.4034 109.621 19.574C109.824 19.7447 110.155 19.8887 110.613 20.006L111.957 20.342C112.736 20.534 113.323 20.8487 113.717 21.286C114.112 21.7127 114.309 22.23 114.309 22.838C114.309 23.574 114.021 24.15 113.445 24.566C112.88 24.982 112.085 25.19 111.061 25.19ZM119.308 25.19C118.359 25.19 117.66 24.9714 117.212 24.534C116.775 24.086 116.556 23.43 116.556 22.566V14.998L118.204 14.374V22.582C118.204 23.0087 118.316 23.3234 118.54 23.526C118.764 23.7287 119.127 23.83 119.628 23.83C119.82 23.83 119.991 23.814 120.14 23.782C120.289 23.75 120.417 23.7127 120.524 23.67V25.014C120.407 25.0674 120.241 25.11 120.028 25.142C119.815 25.174 119.575 25.19 119.308 25.19ZM114.924 18.198V16.87H120.524V18.198H114.924Z" fill="white"/>
<g filter="url(#filter0_iii_95_62)">
<path d="M142.49 18.5884L140.057 16.155C139.938 16.0446 139.781 15.9845 139.62 15.9874C139.458 15.9903 139.303 16.0559 139.189 16.1704C139.074 16.2849 139.008 16.4394 139.006 16.6013C139.003 16.7632 139.063 16.9199 139.173 17.0384L140.54 18.405H132.282C132.116 18.405 131.957 18.4709 131.84 18.5881C131.722 18.7053 131.657 18.8643 131.657 19.03C131.657 19.1958 131.722 19.3548 131.84 19.472C131.957 19.5892 132.116 19.655 132.282 19.655H140.54L139.173 21.0217C139.114 21.0792 139.067 21.1478 139.035 21.2237C139.003 21.2996 138.987 21.3811 138.987 21.4634C138.987 21.5457 139.003 21.6272 139.035 21.7031C139.067 21.7789 139.114 21.8476 139.173 21.905C139.23 21.9647 139.299 22.0118 139.375 22.0433C139.451 22.0749 139.533 22.0902 139.615 22.0884C139.697 22.0888 139.778 22.0728 139.854 22.0413C139.93 22.0098 139.999 21.9635 140.057 21.905L142.49 19.4717C142.607 19.3545 142.673 19.1957 142.673 19.03C142.673 18.8644 142.607 18.7056 142.49 18.5884Z" fill="white"/>
<path opacity="0.3" d="M136.515 14.03C136.554 13.1547 136.936 12.3299 137.579 11.7341C138.221 11.1383 139.072 10.8195 139.948 10.8467H143.59C144.466 10.8195 145.317 11.1383 145.96 11.7341C146.602 12.3299 146.984 13.1547 147.023 14.03V24.03C146.984 24.9054 146.602 25.7302 145.96 26.326C145.317 26.9217 144.466 27.2405 143.59 27.2134H139.948C139.072 27.2405 138.221 26.9217 137.579 26.326C136.936 25.7302 136.554 24.9054 136.515 24.03V14.03Z" fill="white"/>
</g>
<defs>
<filter id="filter0_iii_95_62" x="129.34" y="0.977561" width="20" height="29.4408" filterUnits="userSpaceOnUse" color-interpolation-filters="sRGB">
<feFlood flood-opacity="0" result="BackgroundImageFix"/>
<feBlend mode="normal" in="SourceGraphic" in2="BackgroundImageFix" result="shape"/>
<feColorMatrix in="SourceAlpha" type="matrix" values="0 0 0 0 0 0 0 0 0 0 0 0 0 0 0 0 0 0 127 0" result="hardAlpha"/>
<feMorphology radius="4.16507" operator="dilate" in="SourceAlpha" result="effect1_innerShadow_95_62"/>
<feOffset dy="-13.8836"/>
<feGaussianBlur stdDeviation="6.10877"/>
<feComposite in2="hardAlpha" operator="arithmetic" k2="-1" k3="1"/>
<feColorMatrix type="matrix" values="0 0 0 0 0 0 0 0 0 0 0 0 0 0 0 0 0 0 0.29 0"/>
<feBlend mode="soft-light" in2="shape" result="effect1_innerShadow_95_62"/>
<feColorMatrix in="SourceAlpha" type="matrix" values="0 0 0 0 0 0 0 0 0 0 0 0 0 0 0 0 0 0 127 0" result="hardAlpha"/>
<feMorphology radius="11.1069" operator="dilate" in="SourceAlpha" result="effect2_innerShadow_95_62"/>
<feOffset dy="12.4952"/>
<feGaussianBlur stdDeviation="6.03935"/>
<feComposite in2="hardAlpha" operator="arithmetic" k2="-1" k3="1"/>
<feColorMatrix type="matrix" values="0 0 0 0 1 0 0 0 0 1 0 0 0 0 1 0 0 0 0.59 0"/>
<feBlend mode="overlay" in2="effect1_innerShadow_95_62" result="effect2_innerShadow_95_62"/>
<feColorMatrix in="SourceAlpha" type="matrix" values="0 0 0 0 0 0 0 0 0 0 0 0 0 0 0 0 0 0 127 0" result="hardAlpha"/>
<feOffset dy="1.38836"/>
<feGaussianBlur stdDeviation="2.08253"/>
<feComposite in2="hardAlpha" operator="arithmetic" k2="-1" k3="1"/>
<feColorMatrix type="matrix" values="0 0 0 0 1 0 0 0 0 1 0 0 0 0 1 0 0 0 0.22 0"/>
<feBlend mode="normal" in2="effect2_innerShadow_95_62" result="effect3_innerShadow_95_62"/>
</filter>
<radialGradient id="paint0_radial_95_62" cx="0" cy="0" r="1" gradientUnits="userSpaceOnUse" gradientTransform="translate(88.34 19.03) rotate(90) scale(18 86.9918)">
<stop stop-color="#794CFF"/>
<stop offset="1" stop-color="#5F2CF7"/>
</radialGradient>
</defs>
</svg>
