<svg width="24" height="24" viewBox="0 0 24 24" fill="none" xmlns="http://www.w3.org/2000/svg">
<rect width="24" height="24" rx="12" fill="white" fill-opacity="0.16"/>
<path d="M11.9512 16.6552C10.8032 16.6552 9.91655 16.3892 9.29121 15.8572C8.67521 15.3252 8.34388 14.6252 8.29721 13.7572L9.85121 13.6732C9.90721 14.2425 10.1219 14.6532 10.4952 14.9052C10.8779 15.1478 11.3632 15.2692 11.9512 15.2692C12.3432 15.2692 12.7025 15.2178 13.0292 15.1152C13.3652 15.0032 13.6312 14.8258 13.8272 14.5832C14.0325 14.3312 14.1352 14.0045 14.1352 13.6032C14.1352 13.0058 13.9345 12.5672 13.5332 12.2872C13.1319 11.9978 12.5999 11.8532 11.9372 11.8532H11.1112V10.5372H11.9372C12.4692 10.5372 12.9125 10.4298 13.2672 10.2152C13.6219 10.0005 13.7992 9.62715 13.7992 9.09515C13.7992 8.62849 13.6499 8.27382 13.3512 8.03115C13.0525 7.77915 12.5952 7.65315 11.9792 7.65315C11.3819 7.65315 10.9292 7.76982 10.6212 8.00315C10.3132 8.23649 10.1312 8.55382 10.0752 8.95515L8.52121 8.87115C8.61455 8.08715 8.95521 7.45715 9.54321 6.98115C10.1405 6.50515 10.9525 6.26715 11.9792 6.26715C12.6885 6.26715 13.2952 6.37915 13.7992 6.60315C14.3032 6.81782 14.6905 7.13049 14.9612 7.54115C15.2319 7.95182 15.3672 8.43249 15.3672 8.98315C15.3672 9.58982 15.1712 10.0845 14.7792 10.4672C14.3965 10.8498 13.8319 11.1112 13.0852 11.2512V10.9992C13.8972 11.1018 14.5365 11.3912 15.0032 11.8672C15.4699 12.3338 15.7032 12.9312 15.7032 13.6592C15.7032 14.2845 15.5445 14.8258 15.2272 15.2832C14.9099 15.7312 14.4712 16.0718 13.9112 16.3052C13.3512 16.5385 12.6979 16.6552 11.9512 16.6552Z" fill="white"/>
</svg>
