<svg width="24" height="24" viewBox="0 0 24 24" fill="none" xmlns="http://www.w3.org/2000/svg">
<rect width="24" height="24" rx="12" fill="white" fill-opacity="0.16"/>
<path d="M8.41703 16.6172C8.41703 15.8705 8.52903 15.2032 8.75303 14.6152C8.97703 14.0272 9.3597 13.4812 9.90103 12.9772C10.4424 12.4732 11.189 11.9692 12.141 11.4652C12.5984 11.2319 12.9624 11.0172 13.233 10.8212C13.513 10.6159 13.7137 10.4059 13.835 10.1912C13.9564 9.97652 14.017 9.71519 14.017 9.40719C14.017 9.08985 13.947 8.81919 13.807 8.59519C13.6764 8.36185 13.4804 8.17985 13.219 8.04919C12.9577 7.90919 12.6264 7.83919 12.225 7.83919C11.5904 7.83919 11.0864 8.01185 10.713 8.35719C10.349 8.69319 10.1204 9.17852 10.027 9.81319L8.45903 9.71519C8.57103 8.71652 8.94903 7.92319 9.59303 7.33519C10.2464 6.74719 11.1237 6.45319 12.225 6.45319C12.9344 6.45319 13.5364 6.57919 14.031 6.83119C14.535 7.07385 14.9177 7.41452 15.179 7.85319C15.4497 8.29185 15.585 8.80052 15.585 9.37919C15.585 9.88319 15.501 10.3172 15.333 10.6812C15.165 11.0452 14.885 11.3859 14.493 11.7032C14.101 12.0112 13.569 12.3425 12.897 12.6972C12.0384 13.1545 11.3897 13.6072 10.951 14.0552C10.5124 14.4939 10.279 14.8859 10.251 15.2312H15.585V16.6172H8.41703Z" fill="white"/>
</svg>
