<svg width="20" height="20" viewBox="0 0 20 20" fill="none" xmlns="http://www.w3.org/2000/svg">
<path d="M3.31706 6.85213C2.53744 7.77228 1.95691 8.84397 1.61206 9.99963C2.68873 13.6146 6.03706 16.2496 10.0004 16.2496C10.8279 16.2496 11.6279 16.1346 12.3862 15.9205M5.19039 5.18963C6.6176 4.24785 8.29046 3.74704 10.0004 3.74963C13.9637 3.74963 17.3112 6.38463 18.3879 9.99797C17.7979 11.9724 16.5313 13.676 14.8104 14.8096M5.19039 5.18963L2.50039 2.49963M5.19039 5.18963L8.23206 8.2313M14.8104 14.8096L17.5004 17.4996M14.8104 14.8096L11.7687 11.768C12.0009 11.5358 12.1851 11.2602 12.3107 10.9568C12.4364 10.6535 12.501 10.3284 12.501 10.0001C12.501 9.67172 12.4364 9.3466 12.3107 9.04326C12.1851 8.73992 12.0009 8.4643 11.7687 8.23213C11.5366 7.99997 11.2609 7.8158 10.9576 7.69016C10.6543 7.56451 10.3291 7.49984 10.0008 7.49984C9.67248 7.49984 9.34736 7.56451 9.04402 7.69016C8.74068 7.8158 8.46506 7.99997 8.23289 8.23213M11.7679 11.7671L8.23373 8.23297" stroke="#111111" stroke-opacity="0.72" stroke-width="1.25" stroke-linecap="round" stroke-linejoin="round"/>
</svg>
