<svg width="1546" height="1546" viewBox="0 0 1546 1546" fill="none" xmlns="http://www.w3.org/2000/svg">
<path d="M773 1545C1199.36 1545 1545 1199.36 1545 773C1545 346.636 1199.36 1 773 1C346.636 1 1 346.636 1 773C1 1199.36 346.636 1545 773 1545Z" stroke="#E9ECEF" stroke-linecap="round" stroke-linejoin="round"/>
<path d="M772.561 1483.56C1164.99 1483.56 1483.12 1165.43 1483.12 773C1483.12 380.568 1164.99 62.4389 772.561 62.4389C380.129 62.4389 62 380.568 62 773C62 1165.43 380.129 1483.56 772.561 1483.56Z" stroke="#E9ECEF" stroke-linecap="round" stroke-linejoin="round"/>
<path d="M773.099 1422.1C1131.59 1422.1 1422.2 1131.49 1422.2 773C1422.2 414.512 1131.59 123.9 773.099 123.9C414.612 123.9 124 414.512 124 773C124 1131.49 414.612 1422.1 773.099 1422.1Z" stroke="#E9ECEF" stroke-linecap="round" stroke-linejoin="round"/>
<path d="M772.661 1360.66C1097.22 1360.66 1360.32 1097.56 1360.32 773C1360.32 448.444 1097.22 185.339 772.661 185.339C448.105 185.339 185 448.444 185 773C185 1097.56 448.105 1360.66 772.661 1360.66Z" stroke="#E9ECEF" stroke-linecap="round" stroke-linejoin="round"/>
<path d="M773.199 1299.2C1063.81 1299.2 1299.4 1063.61 1299.4 773C1299.4 482.388 1063.81 246.801 773.199 246.801C482.587 246.801 247 482.388 247 773C247 1063.61 482.587 1299.2 773.199 1299.2Z" stroke="#E9ECEF" stroke-linecap="round" stroke-linejoin="round"/>
<path d="M772.76 1237.76C1029.44 1237.76 1237.52 1029.68 1237.52 773C1237.52 516.32 1029.44 308.24 772.76 308.24C516.08 308.24 308 516.32 308 773C308 1029.68 516.08 1237.76 772.76 1237.76Z" stroke="#E9ECEF" stroke-linecap="round" stroke-linejoin="round"/>
<path d="M773.298 1176.3C996.034 1176.3 1176.6 995.735 1176.6 773C1176.6 550.264 996.034 369.701 773.298 369.701C550.563 369.701 370 550.264 370 773C370 995.735 550.563 1176.3 773.298 1176.3Z" stroke="#E9ECEF" stroke-linecap="round" stroke-linejoin="round"/>
<path d="M772.859 1114.86C961.663 1114.86 1114.72 961.804 1114.72 773C1114.72 584.196 961.663 431.141 772.859 431.141C584.056 431.141 431 584.196 431 773C431 961.804 584.056 1114.86 772.859 1114.86Z" stroke="#E9ECEF" stroke-linecap="round" stroke-linejoin="round"/>
<path d="M773.398 1053.4C928.257 1053.4 1053.8 927.859 1053.8 773C1053.8 618.141 928.257 492.602 773.398 492.602C618.538 492.602 493 618.141 493 773C493 927.859 618.538 1053.4 773.398 1053.4Z" stroke="#E9ECEF" stroke-linecap="round" stroke-linejoin="round"/>
<path d="M772.959 991.959C893.887 991.959 991.918 893.927 991.918 773C991.918 652.072 893.887 554.041 772.959 554.041C652.031 554.041 554 652.072 554 773C554 893.927 652.031 991.959 772.959 991.959Z" stroke="#E9ECEF" stroke-linecap="round" stroke-linejoin="round"/>
<path d="M773.497 930.497C860.48 930.497 930.994 859.983 930.994 773C930.994 686.017 860.48 615.503 773.497 615.503C686.514 615.503 616 686.017 616 773C616 859.983 686.514 930.497 773.497 930.497Z" stroke="#E9ECEF" stroke-linecap="round" stroke-linejoin="round"/>
<path d="M773.058 869.058C826.11 869.058 869.117 826.052 869.117 773C869.117 719.948 826.11 676.942 773.058 676.942C720.007 676.942 677 719.948 677 773C677 826.052 720.007 869.058 773.058 869.058Z" stroke="#E9ECEF" stroke-linecap="round" stroke-linejoin="round"/>
</svg>
