<svg width="21" height="21" viewBox="0 0 21 21" fill="none" xmlns="http://www.w3.org/2000/svg">
<g filter="url(#filter0_iii_95_64)">
<path d="M13.49 9.58838L11.0566 7.15505C10.9381 7.04465 10.7814 6.98455 10.6195 6.9874C10.4576 6.99026 10.3031 7.05585 10.1886 7.17036C10.0741 7.28487 10.0085 7.43936 10.0056 7.60128C10.0028 7.7632 10.0629 7.9199 10.1733 8.03838L11.5399 9.40505H3.28162C3.11586 9.40505 2.95688 9.4709 2.83967 9.58811C2.72246 9.70532 2.65662 9.86429 2.65662 10.03C2.65662 10.1958 2.72246 10.3548 2.83967 10.472C2.95688 10.5892 3.11586 10.655 3.28162 10.655H11.5399L10.1733 12.0217C10.1143 12.0792 10.0675 12.1478 10.0355 12.2237C10.0035 12.2996 9.98698 12.3811 9.98698 12.4634C9.98698 12.5457 10.0035 12.6272 10.0355 12.7031C10.0675 12.7789 10.1143 12.8476 10.1733 12.905C10.2301 12.9647 10.2987 13.0118 10.3748 13.0433C10.4508 13.0749 10.5326 13.0902 10.615 13.0884C10.6971 13.0888 10.7784 13.0728 10.8543 13.0413C10.9301 13.0098 10.9989 12.9635 11.0566 12.905L13.49 10.4717C13.607 10.3545 13.6727 10.1957 13.6727 10.03C13.6727 9.86442 13.607 9.70557 13.49 9.58838Z" fill="white"/>
<path opacity="0.3" d="M7.51495 5.03003C7.55396 4.15466 7.93609 3.32985 8.57863 2.73409C9.22118 2.13833 10.0725 1.81954 10.9483 1.8467H14.59C15.4658 1.81954 16.3171 2.13833 16.9596 2.73409C17.6022 3.32985 17.9843 4.15466 18.0233 5.03003V15.03C17.9843 15.9054 17.6022 16.7302 16.9596 17.326C16.3171 17.9217 15.4658 18.2405 14.59 18.2134H10.9483C10.0725 18.2405 9.22118 17.9217 8.57863 17.326C7.93609 16.7302 7.55396 15.9054 7.51495 15.03V5.03003Z" fill="white"/>
</g>
<defs>
<filter id="filter0_iii_95_64" x="0.339966" y="-8.02244" width="20" height="29.4408" filterUnits="userSpaceOnUse" color-interpolation-filters="sRGB">
<feFlood flood-opacity="0" result="BackgroundImageFix"/>
<feBlend mode="normal" in="SourceGraphic" in2="BackgroundImageFix" result="shape"/>
<feColorMatrix in="SourceAlpha" type="matrix" values="0 0 0 0 0 0 0 0 0 0 0 0 0 0 0 0 0 0 127 0" result="hardAlpha"/>
<feMorphology radius="4.16507" operator="dilate" in="SourceAlpha" result="effect1_innerShadow_95_64"/>
<feOffset dy="-13.8836"/>
<feGaussianBlur stdDeviation="6.10877"/>
<feComposite in2="hardAlpha" operator="arithmetic" k2="-1" k3="1"/>
<feColorMatrix type="matrix" values="0 0 0 0 0 0 0 0 0 0 0 0 0 0 0 0 0 0 0.29 0"/>
<feBlend mode="soft-light" in2="shape" result="effect1_innerShadow_95_64"/>
<feColorMatrix in="SourceAlpha" type="matrix" values="0 0 0 0 0 0 0 0 0 0 0 0 0 0 0 0 0 0 127 0" result="hardAlpha"/>
<feMorphology radius="11.1069" operator="dilate" in="SourceAlpha" result="effect2_innerShadow_95_64"/>
<feOffset dy="12.4952"/>
<feGaussianBlur stdDeviation="6.03935"/>
<feComposite in2="hardAlpha" operator="arithmetic" k2="-1" k3="1"/>
<feColorMatrix type="matrix" values="0 0 0 0 1 0 0 0 0 1 0 0 0 0 1 0 0 0 0.59 0"/>
<feBlend mode="overlay" in2="effect1_innerShadow_95_64" result="effect2_innerShadow_95_64"/>
<feColorMatrix in="SourceAlpha" type="matrix" values="0 0 0 0 0 0 0 0 0 0 0 0 0 0 0 0 0 0 127 0" result="hardAlpha"/>
<feOffset dy="1.38836"/>
<feGaussianBlur stdDeviation="2.08253"/>
<feComposite in2="hardAlpha" operator="arithmetic" k2="-1" k3="1"/>
<feColorMatrix type="matrix" values="0 0 0 0 1 0 0 0 0 1 0 0 0 0 1 0 0 0 0.22 0"/>
<feBlend mode="normal" in2="effect2_innerShadow_95_64" result="effect3_innerShadow_95_64"/>
</filter>
</defs>
</svg>
