<svg width="24" height="24" viewBox="0 0 24 24" fill="none" xmlns="http://www.w3.org/2000/svg">
<path opacity="0.2" d="M19.5 20.25H15L4.5 3.75H9L19.5 20.25Z" fill="url(#paint0_radial_95_79)"/>
<path d="M20.1328 19.8478L14.2641 10.6247L20.055 4.25438C20.186 4.10674 20.2534 3.91344 20.2428 3.71636C20.2322 3.5193 20.1444 3.33434 19.9984 3.20162C19.8523 3.06888 19.6598 2.99908 19.4627 3.0073C19.2655 3.01554 19.0795 3.10118 18.945 3.24562L13.4288 9.31312L9.63283 3.34782C9.56513 3.24126 9.47165 3.15354 9.36103 3.09274C9.25041 3.03194 9.12623 3.00004 9.00001 3H4.50001C4.36553 2.99994 4.23351 3.03602 4.11777 3.1045C4.00205 3.17296 3.90685 3.27128 3.84215 3.38918C3.77745 3.50706 3.74565 3.64018 3.75005 3.77458C3.75445 3.90898 3.79491 4.03972 3.86719 4.15312L9.73595 13.3753L3.94501 19.7503C3.87739 19.823 3.82485 19.9083 3.79045 20.0014C3.75605 20.0944 3.74047 20.1934 3.74461 20.2926C3.74875 20.3918 3.77255 20.4892 3.81459 20.579C3.85663 20.669 3.91611 20.7496 3.98955 20.8164C4.06299 20.8832 4.14897 20.9346 4.24247 20.968C4.33597 21.0012 4.43515 21.0156 4.53425 21.0102C4.63335 21.005 4.73041 20.98 4.81981 20.9368C4.90921 20.8938 4.98915 20.8334 5.05501 20.759L10.5713 14.6916L14.3672 20.6568C14.4355 20.7626 14.5292 20.8494 14.6398 20.9094C14.7503 20.9692 14.8742 21.0004 15 21H19.5C19.6344 21 19.7662 20.9638 19.8818 20.8954C19.9974 20.827 20.0924 20.7288 20.1572 20.611C20.2218 20.4934 20.2536 20.3604 20.2494 20.2262C20.2452 20.0918 20.2048 19.9612 20.1328 19.8478ZM15.4116 19.5L5.86595 4.5H8.58469L18.1341 19.5H15.4116Z" fill="url(#paint1_radial_95_79)"/>
<defs>
<radialGradient id="paint0_radial_95_79" cx="0" cy="0" r="1" gradientUnits="userSpaceOnUse" gradientTransform="translate(12 12) rotate(90) scale(8.25 7.5)">
<stop stop-color="#794CFF"/>
<stop offset="1" stop-color="#5F2CF7"/>
</radialGradient>
<radialGradient id="paint1_radial_95_79" cx="0" cy="0" r="1" gradientUnits="userSpaceOnUse" gradientTransform="translate(11.9969 12.0057) rotate(90) scale(9.00565 8.25291)">
<stop stop-color="#794CFF"/>
<stop offset="1" stop-color="#5F2CF7"/>
</radialGradient>
</defs>
</svg>
